<?xml version="1.0" encoding="utf-8"?>
<!-- Generator: Adobe Illustrator 27.8.1, SVG Export Plug-In . SVG Version: 6.00 Build 0)  -->
<svg version="1.1" id="Layer_1" xmlns="http://www.w3.org/2000/svg" xmlns:xlink="http://www.w3.org/1999/xlink" x="0px" y="0px"
	 viewBox="0 0 3130.5 595.3" style="enable-background:new 0 0 3130.5 595.3;" xml:space="preserve">
<style type="text/css">
	.st0{fill:#AEC2B8;}
	.st1{fill:#ADC0B4;}
	.st2{fill:#3E5C3E;}
	.st3{fill:#57885A;}
</style>
<path class="st0" d="M250.3,159.5c-0.4,0.1-0.8,0.1-1.3,0.1C249.2,158.6,249.7,158.5,250.3,159.5z"/>
<path class="st1" d="M442.8,189.8c-0.1,0.1-0.2,0.2-0.5,0.2C442.3,189.9,442.5,189.8,442.8,189.8z"/>
<path class="st0" d="M174.5,315.3c0.2,0.1,0.3,0.3,0.4,0.5C174.7,315.8,174.6,315.6,174.5,315.3z"/>
<path class="st0" d="M173.5,274c0.1,0.2,0,0.4-0.1,0.7C173.3,274.5,173.3,274.3,173.5,274z"/>
<path class="st0" d="M327.3,420.6c0.1-0.2,0.2-0.3,0.5-0.4C327.8,420.4,327.6,420.5,327.3,420.6z"/>
<path class="st0" d="M173.7,311.3c0.2-0.1,0.3,0,0.3,0.2C173.9,311.5,173.8,311.4,173.7,311.3z"/>
<path class="st0" d="M428.1,335.9c-0.1,0.1-0.2,0.1-0.3-0.1C427.9,335.7,428,335.8,428.1,335.9z"/>
<path class="st0" d="M405.4,313.2c-0.1,0.1-0.2,0.1-0.3-0.1C405.2,313,405.3,313,405.4,313.2z"/>
<path class="st0" d="M406.6,314.4c-0.1,0.1-0.2,0.1-0.3-0.1C406.4,314.2,406.5,314.3,406.6,314.4z"/>
<path class="st0" d="M407.8,315.6c-0.1,0.1-0.2,0.1-0.3-0.1C407.6,315.4,407.7,315.5,407.8,315.6z"/>
<path class="st0" d="M409,316.8c-0.1,0.1-0.2,0.1-0.3-0.1C408.8,316.7,408.9,316.7,409,316.8z"/>
<path class="st0" d="M410.2,318c-0.1,0.1-0.2,0.1-0.3-0.1C410,317.9,410.2,317.9,410.2,318z"/>
<path class="st0" d="M411.5,319.3c-0.1,0.1-0.2,0.1-0.3-0.1C411.2,319.1,411.4,319.1,411.5,319.3z"/>
<path class="st0" d="M412.7,320.5c-0.1,0.1-0.2,0.1-0.3-0.1C412.5,320.3,412.6,320.3,412.7,320.5z"/>
<path class="st0" d="M175.7,321c0.2-0.1,0.3,0,0.3,0.2C175.9,321.2,175.8,321.2,175.7,321z"/>
<path class="st0" d="M413.9,321.7c-0.1,0.1-0.2,0.1-0.3-0.1C413.7,321.5,413.8,321.6,413.9,321.7z"/>
<path class="st0" d="M415.1,322.9c-0.1,0.1-0.2,0.1-0.3-0.1C414.9,322.7,415,322.8,415.1,322.9z"/>
<path class="st0" d="M416.3,324.1c-0.1,0.1-0.2,0.1-0.3-0.1C416.1,324,416.2,324,416.3,324.1z"/>
<path class="st0" d="M176.9,325.9c0.2-0.1,0.3,0,0.3,0.2C177.1,326.1,177,326,176.9,325.9z"/>
<path class="st0" d="M178.1,329.9c0.2-0.1,0.3,0,0.3,0.2C178.3,330.1,178.2,330.1,178.1,329.9z"/>
<path class="st0" d="M425.4,267.3c-0.1-0.1-0.1-0.2,0.1-0.3C425.6,267.1,425.6,267.2,425.4,267.3z"/>
<path class="st0" d="M172.7,281.3c0.1,0.1,0.1,0.2-0.1,0.4C172.5,281.5,172.5,281.4,172.7,281.3z"/>
<path class="st0" d="M351.9,145.4c0.1,0.1,0.1,0.2-0.1,0.4C351.7,145.7,351.8,145.6,351.9,145.4z"/>
<path class="st1" d="M363.7,268.4c0.1,0.2,0.1,0.2-0.1,0.3C363.5,268.6,363.6,268.4,363.7,268.4z"/>
<path class="st0" d="M424.2,268.5c-0.1-0.1-0.1-0.2,0.1-0.3C424.4,268.3,424.3,268.4,424.2,268.5z"/>
<path class="st0" d="M423,269.7c-0.1-0.1-0.1-0.2,0.1-0.3C423.2,269.5,423.1,269.6,423,269.7z"/>
<path class="st0" d="M173.9,271.1c0.1,0.1,0.1,0.2-0.1,0.4C173.7,271.4,173.8,271.3,173.9,271.1z"/>
<path class="st0" d="M420.6,272.2c-0.1-0.1-0.1-0.2,0.1-0.3C420.7,271.9,420.7,272.1,420.6,272.2z"/>
<path class="st0" d="M414.1,278.6c-0.1-0.1-0.1-0.2,0.1-0.3C414.2,278.4,414.2,278.5,414.1,278.6z"/>
<path class="st0" d="M412.8,279.9c-0.1-0.1-0.1-0.2,0.1-0.3C413,279.6,413,279.8,412.8,279.9z"/>
<path class="st0" d="M173.3,308c0.2-0.1,0.3,0,0.3,0.2C173.5,308.2,173.4,308.2,173.3,308z"/>
<path class="st0" d="M406.4,286.3c-0.1-0.1-0.1-0.2,0.1-0.3C406.5,286.1,406.5,286.3,406.4,286.3z"/>
<path class="st0" d="M403.9,288.8c-0.1-0.1-0.1-0.2,0.1-0.3C404.1,288.6,404.1,288.7,403.9,288.8z"/>
<path class="st0" d="M401.5,291.2c-0.1-0.1-0.1-0.2,0.1-0.3C401.7,291,401.6,291.1,401.5,291.2z"/>
<path class="st0" d="M395,297.7c-0.1-0.1-0.1-0.2,0.1-0.3C395.2,297.5,395.1,297.6,395,297.7z"/>
<path class="st0" d="M393.8,299c-0.1-0.1-0.1-0.2,0.1-0.4C394,298.7,393.9,298.8,393.8,299z"/>
<path class="st0" d="M172.5,301.1c0.2-0.1,0.3,0,0.3,0.2C172.7,301.3,172.5,301.3,172.5,301.1z"/>
<path class="st0" d="M394.8,302.6c-0.1,0.1-0.2,0.1-0.3-0.1C394.6,302.5,394.7,302.5,394.8,302.6z"/>
<path class="st0" d="M282.3,420.8c0.1-0.1,0.2-0.1,0.4,0.1C282.6,420.9,282.4,420.9,282.3,420.8z"/>
<path class="st0" d="M267.9,417.9c0.1-0.1,0.2-0.1,0.3,0.1C268.2,418.1,268.1,418,267.9,417.9z"/>
<path class="st0" d="M336.2,418.5c-0.1-0.2,0-0.3,0.2-0.3C336.4,418.3,336.4,418.5,336.2,418.5z"/>
<path class="st0" d="M271.2,418.7c0.1-0.1,0.2-0.1,0.4,0.1C271.4,418.9,271.3,418.9,271.2,418.7z"/>
<path class="st0" d="M272.8,419.1c0.1-0.1,0.2-0.1,0.3,0.1C273,419.3,272.9,419.3,272.8,419.1z"/>
<path class="st0" d="M333.4,419.4c-0.1-0.2,0-0.3,0.2-0.3C333.6,419.1,333.5,419.3,333.4,419.4z"/>
<path class="st0" d="M274.8,419.5c0.1-0.1,0.2-0.1,0.4,0.1C275.1,419.7,274.9,419.7,274.8,419.5z"/>
<path class="st0" d="M277.8,419.9c0.1-0.1,0.2-0.1,0.4,0.1C278.1,420.1,278,420.1,277.8,419.9z"/>
<path class="st0" d="M279.5,420.3c0.1-0.1,0.2-0.1,0.3,0.1C279.7,420.5,279.6,420.5,279.5,420.3z"/>
<path class="st0" d="M339.5,417.7c-0.1-0.2,0-0.3,0.2-0.3C339.7,417.5,339.6,417.6,339.5,417.7z"/>
<path class="st0" d="M324.9,421c-0.1-0.2,0-0.3,0.2-0.3C325.1,420.8,325,420.9,324.9,421z"/>
<path class="st0" d="M287.2,421.6c0.1-0.1,0.2-0.1,0.4,0.1C287.4,421.7,287.3,421.7,287.2,421.6z"/>
<path class="st0" d="M320,421.8c-0.1-0.2,0-0.3,0.2-0.3C320.2,421.6,320.1,421.7,320,421.8z"/>
<path class="st0" d="M291.6,422c0.1-0.1,0.2-0.1,0.4,0.1C291.9,422.1,291.8,422.1,291.6,422z"/>
<path class="st0" d="M315.5,422.2c-0.1-0.2,0-0.3,0.2-0.3C315.7,422,315.7,422.1,315.5,422.2z"/>
<path class="st0" d="M297.7,422.4c0.1-0.1,0.2-0.1,0.4,0.1C298,422.5,297.8,422.5,297.7,422.4z"/>
<path class="st0" d="M309.4,422.6c-0.1-0.2,0-0.3,0.2-0.3C309.7,422.4,309.6,422.5,309.4,422.6z"/>
<path class="st1" d="M405.1,152.6c-0.1,0-0.2-0.1-0.1-0.2C405.1,152.4,405.2,152.5,405.1,152.6z"/>
<path class="st0" d="M187.1,351.8c0.2-0.1,0.3,0,0.3,0.2C187.3,352,187.1,352,187.1,351.8z"/>
<path class="st0" d="M430.5,338.3c-0.1,0.1-0.2,0.1-0.3-0.1C430.3,338.2,430.4,338.2,430.5,338.3z"/>
<path class="st0" d="M431.7,339.5c-0.1,0.1-0.2,0.1-0.3-0.1C431.5,339.4,431.6,339.4,431.7,339.5z"/>
<path class="st0" d="M433,340.8c-0.1,0.1-0.2,0.1-0.3-0.1C432.7,340.6,432.9,340.6,433,340.8z"/>
<path class="st0" d="M434.2,342c-0.1,0.1-0.2,0.1-0.3-0.1C434,341.8,434.1,341.8,434.2,342z"/>
<path class="st0" d="M435.4,343.2c-0.1,0.1-0.2,0.1-0.3-0.1C435.2,343,435.3,343.1,435.4,343.2z"/>
<path class="st0" d="M436,344.4c-0.1,0-0.2-0.1-0.1-0.2C435.9,344.2,436,344.3,436,344.4z"/>
<path class="st0" d="M184.6,346.9c0.2-0.1,0.3,0,0.3,0.2C184.8,347.2,184.7,347.1,184.6,346.9z"/>
<path class="st0" d="M185.8,349.4c0.2-0.1,0.3,0,0.3,0.2C186.1,349.6,185.9,349.5,185.8,349.4z"/>
<path class="st0" d="M429.3,337.1c-0.1,0.1-0.2,0.1-0.3-0.1C429.1,336.9,429.2,337,429.3,337.1z"/>
<path class="st0" d="M209.2,383.4c0.1-0.1,0.2-0.1,0.3,0.1C209.4,383.6,209.3,383.6,209.2,383.4z"/>
<path class="st0" d="M210.4,384.7c0.1-0.1,0.2-0.1,0.3,0.1C210.6,384.8,210.5,384.8,210.4,384.7z"/>
<path class="st0" d="M218.9,392.4c0.1-0.1,0.2-0.1,0.4,0.1C219.1,392.5,219,392.5,218.9,392.4z"/>
<path class="st0" d="M252.5,412.6c0.1-0.1,0.2-0.1,0.4,0.1C252.8,412.8,252.6,412.8,252.5,412.6z"/>
<path class="st0" d="M350.4,414.1c-0.1-0.2,0-0.3,0.2-0.3C350.6,413.9,350.6,414,350.4,414.1z"/>
<path class="st0" d="M347.2,415.3c-0.1-0.2,0-0.3,0.2-0.3C347.4,415.1,347.3,415.2,347.2,415.3z"/>
<path class="st0" d="M343.5,416.5c-0.1-0.2,0-0.3,0.2-0.3C343.7,416.3,343.7,416.4,343.5,416.5z"/>
<path class="st0" d="M464.8,228c-0.1-0.1-0.1-0.2,0.1-0.3C464.9,227.7,464.9,227.9,464.8,228z"/>
<path class="st1" d="M413.2,218.9c0.1,0.2,0.1,0.2-0.1,0.3C413,219.1,413,219,413.2,218.9z"/>
<path class="st1" d="M411.9,220.1c0.1,0.2,0.1,0.2-0.1,0.3C411.8,220.3,411.8,220.2,411.9,220.1z"/>
<path class="st1" d="M410.7,221.3c0.1,0.2,0.1,0.2-0.1,0.3C410.6,221.5,410.6,221.4,410.7,221.3z"/>
<path class="st1" d="M409.5,222.5c0.1,0.2,0.1,0.2-0.1,0.3C409.3,222.7,409.4,222.6,409.5,222.5z"/>
<path class="st1" d="M406.7,225.4c0.1,0.2,0.1,0.2-0.1,0.3C406.5,225.6,406.5,225.5,406.7,225.4z"/>
<path class="st1" d="M405.5,226.6c0.1,0.2,0.1,0.2-0.1,0.3C405.3,226.8,405.3,226.7,405.5,226.6z"/>
<path class="st0" d="M466,226.8c-0.1-0.1-0.1-0.2,0.1-0.4C466.1,226.5,466.1,226.7,466,226.8z"/>
<path class="st0" d="M465.6,227.1c-0.1-0.2,0-0.3,0.2-0.3C465.8,226.9,465.7,227.1,465.6,227.1z"/>
<path class="st1" d="M414.4,217.7c0.1,0.2,0.1,0.2-0.1,0.3C414.2,217.9,414.2,217.8,414.4,217.7z"/>
<path class="st1" d="M403,229c0.1,0.2,0.1,0.2-0.1,0.3C402.9,229.2,402.9,229.1,403,229z"/>
<path class="st0" d="M463.5,229.2c-0.1-0.1-0.1-0.2,0.1-0.3C463.7,229,463.7,229.1,463.5,229.2z"/>
<path class="st0" d="M187.7,229.8c0.1,0.1,0.1,0.2-0.1,0.4C187.5,230,187.5,229.9,187.7,229.8z"/>
<path class="st1" d="M401.8,230.2c0.1,0.2,0.1,0.2-0.1,0.3C401.6,230.5,401.7,230.3,401.8,230.2z"/>
<path class="st0" d="M462.3,230.4c-0.1-0.1-0.1-0.2,0.1-0.3C462.5,230.2,462.5,230.3,462.3,230.4z"/>
<path class="st1" d="M400.6,231.5c0.1,0.2,0.1,0.2-0.1,0.3C400.4,231.7,400.5,231.5,400.6,231.5z"/>
<path class="st0" d="M461.1,231.6c-0.1-0.1-0.1-0.2,0.1-0.3C461.3,231.4,461.2,231.5,461.1,231.6z"/>
<path class="st1" d="M396.5,235.5c0.1,0.2,0.1,0.2-0.1,0.3C396.4,235.7,396.4,235.6,396.5,235.5z"/>
<path class="st1" d="M428.2,203.9c0.1,0.2,0.1,0.2-0.1,0.3C428,204.1,428,204,428.2,203.9z"/>
<path class="st0" d="M332.9,164.5c0.1,0.1,0.1,0.2-0.1,0.4C332.7,164.7,332.7,164.6,332.9,164.5z"/>
<path class="st0" d="M332.1,165.3c0.1,0.2,0,0.3-0.2,0.3C331.8,165.6,331.9,165.4,332.1,165.3z"/>
<path class="st0" d="M351.1,146.3c0.1,0.2,0,0.3-0.2,0.3C350.9,146.5,350.9,146.4,351.1,146.3z"/>
<path class="st1" d="M435.9,196.2c0.1,0.2,0.1,0.2-0.1,0.3C435.7,196.4,435.7,196.3,435.9,196.2z"/>
<path class="st1" d="M434.7,197.4c0.1,0.2,0.1,0.2-0.1,0.3C434.5,197.6,434.5,197.5,434.7,197.4z"/>
<path class="st1" d="M433.4,198.6c0.1,0.2,0.1,0.2-0.1,0.3C433.3,198.8,433.3,198.7,433.4,198.6z"/>
<path class="st1" d="M432.2,199.8c0.1,0.2,0.1,0.2-0.1,0.3C432.1,200,432.1,199.9,432.2,199.8z"/>
<path class="st1" d="M431,201c0.1,0.2,0.1,0.2-0.1,0.3C430.8,201.3,430.9,201.1,431,201z"/>
<path class="st0" d="M457,235.7c-0.1-0.1-0.1-0.2,0.1-0.3C457.2,235.4,457.2,235.6,457,235.7z"/>
<path class="st1" d="M426.9,205.1c0.1,0.2,0.1,0.2-0.1,0.3C426.8,205.3,426.8,205.2,426.9,205.1z"/>
<path class="st0" d="M202.9,205.9c0.1,0.1,0.1,0.2-0.1,0.4C202.7,206.1,202.8,206,202.9,205.9z"/>
<path class="st1" d="M425.7,206.3c0.1,0.2,0.1,0.2-0.1,0.3C425.6,206.5,425.6,206.4,425.7,206.3z"/>
<path class="st1" d="M424.5,207.5c0.1,0.2,0.1,0.2-0.1,0.3C424.4,207.7,424.4,207.6,424.5,207.5z"/>
<path class="st1" d="M423.3,208.7c0.1,0.2,0.1,0.2-0.1,0.3C423.1,209,423.2,208.8,423.3,208.7z"/>
<path class="st1" d="M416.8,215.2c0.1,0.2,0.1,0.2-0.1,0.3C416.6,215.4,416.7,215.3,416.8,215.2z"/>
<path class="st1" d="M415.6,216.5c0.1,0.2,0.1,0.2-0.1,0.3C415.4,216.7,415.5,216.5,415.6,216.5z"/>
<path class="st0" d="M194,217.6c0.1,0.1,0.1,0.2-0.1,0.4C193.8,217.9,193.8,217.7,194,217.6z"/>
<path class="st1" d="M375,257c0.1,0.2,0.1,0.2-0.1,0.3C374.9,257.2,374.9,257.1,375,257z"/>
<path class="st0" d="M443.3,249.4c-0.1-0.1-0.1-0.2,0.1-0.3C443.4,249.2,443.4,249.4,443.3,249.4z"/>
<path class="st1" d="M381.5,250.5c0.1,0.2,0.1,0.2-0.1,0.3C381.4,250.7,381.4,250.6,381.5,250.5z"/>
<path class="st0" d="M442,250.7c-0.1-0.1-0.1-0.2,0.1-0.3C442.2,250.4,442.2,250.6,442,250.7z"/>
<path class="st1" d="M379.1,252.9c0.1,0.2,0.1,0.2-0.1,0.3C378.9,253.2,379,253,379.1,252.9z"/>
<path class="st0" d="M439.6,253.1c-0.1-0.1-0.1-0.2,0.1-0.3C439.8,252.9,439.7,253,439.6,253.1z"/>
<path class="st0" d="M438,254.7c-0.1-0.1-0.1-0.2,0.1-0.3C438.2,254.5,438.1,254.6,438,254.7z"/>
<path class="st0" d="M436.8,255.9c-0.1-0.1-0.1-0.2,0.1-0.3C436.9,255.7,436.9,255.8,436.8,255.9z"/>
<path class="st0" d="M177.1,256.5c0.1,0.1,0.1,0.2-0.1,0.4C177,256.8,177,256.7,177.1,256.5z"/>
<path class="st1" d="M382.7,249.3c0.1,0.2,0.1,0.2-0.1,0.3C382.6,249.5,382.6,249.4,382.7,249.3z"/>
<path class="st0" d="M435.6,257.1c-0.1-0.1-0.1-0.2,0.1-0.3C435.7,256.9,435.7,257.1,435.6,257.1z"/>
<path class="st1" d="M373.8,258.2c0.1,0.2,0.1,0.2-0.1,0.3C373.7,258.4,373.7,258.3,373.8,258.2z"/>
<path class="st1" d="M372.6,259.4c0.1,0.2,0.1,0.2-0.1,0.3C372.4,259.6,372.5,259.5,372.6,259.4z"/>
<path class="st0" d="M433.1,259.6c-0.1-0.1-0.1-0.2,0.1-0.3C433.3,259.4,433.3,259.5,433.1,259.6z"/>
<path class="st1" d="M371.4,260.7c0.1,0.2,0.1,0.2-0.1,0.3C371.2,260.9,371.3,260.7,371.4,260.7z"/>
<path class="st0" d="M431.9,260.8c-0.1-0.1-0.1-0.2,0.1-0.3C432.1,260.6,432,260.7,431.9,260.8z"/>
<path class="st0" d="M175.9,261c0.1,0.1,0.1,0.2-0.1,0.4C175.8,261.3,175.8,261.1,175.9,261z"/>
<path class="st0" d="M427.9,264.9c-0.1-0.1-0.1-0.2,0.1-0.3C428,264.6,428,264.8,427.9,264.9z"/>
<path class="st0" d="M451,241.7c-0.1-0.1-0.1-0.2,0.1-0.3C451.1,241.5,451.1,241.6,451,241.7z"/>
<path class="st0" d="M455.8,236.9c-0.1-0.1-0.1-0.2,0.1-0.3C456,236.7,456,236.8,455.8,236.9z"/>
<path class="st1" d="M394.1,237.9c0.1,0.2,0.1,0.2-0.1,0.3C393.9,238.2,394,238,394.1,237.9z"/>
<path class="st0" d="M454.6,238.1c-0.1-0.1-0.1-0.2,0.1-0.3C454.8,237.9,454.8,238,454.6,238.1z"/>
<path class="st1" d="M392.9,239.2c0.1,0.2,0.1,0.2-0.1,0.3C392.7,239.4,392.8,239.3,392.9,239.2z"/>
<path class="st0" d="M453.4,239.3c-0.1-0.1-0.1-0.2,0.1-0.3C453.6,239.1,453.5,239.2,453.4,239.3z"/>
<path class="st1" d="M391.7,240.4c0.1,0.2,0.1,0.2-0.1,0.3C391.5,240.6,391.5,240.5,391.7,240.4z"/>
<path class="st0" d="M452.2,240.5c-0.1-0.1-0.1-0.2,0.1-0.3C452.4,240.3,452.3,240.4,452.2,240.5z"/>
<path class="st1" d="M390.5,241.6c0.1,0.2,0.1,0.2-0.1,0.3C390.3,241.8,390.3,241.7,390.5,241.6z"/>
<path class="st0" d="M174.7,266.7c0.1,0.1,0.1,0.2-0.1,0.4C174.6,266.9,174.6,266.8,174.7,266.7z"/>
<path class="st0" d="M449.3,243.4c-0.1-0.1-0.1-0.2,0.1-0.3C449.5,243.1,449.5,243.3,449.3,243.4z"/>
<path class="st0" d="M448.1,244.6c-0.1-0.1-0.1-0.2,0.1-0.3C448.3,244.4,448.3,244.5,448.1,244.6z"/>
<path class="st0" d="M447.3,245.4c-0.1-0.1-0.1-0.2,0.1-0.4C447.5,245.2,447.5,245.3,447.3,245.4z"/>
<path class="st1" d="M386.4,245.7c0.1,0.2,0.1,0.2-0.1,0.3C386.2,245.9,386.3,245.7,386.4,245.7z"/>
<path class="st0" d="M446.9,245.8c-0.1-0.2,0-0.3,0.2-0.3C447.1,245.6,447.1,245.7,446.9,245.8z"/>
<path class="st1" d="M384,248.1c0.1,0.2,0.1,0.2-0.1,0.3C383.8,248.3,383.8,248.2,384,248.1z"/>
<path class="st0" d="M444.5,248.2c-0.1-0.1-0.1-0.2,0.1-0.3C444.6,248,444.6,248.1,444.5,248.2z"/>
<g>
	<g>
		<path class="st2" d="M925.5,160.8v247c0,9.9-4.7,14.8-14,14.8h-32.6c-4.3,0-7.7-1-10.1-3c-2.4-2-4.5-4.9-6.3-8.7L776.7,234
			c-2.3-5.1-4.9-10.8-8-17.3c-3-6.5-5.3-12.5-6.8-18h-5.7c0.5,5.8,0.9,11.7,1.1,17.6c0.2,5.9,0.4,12,0.4,18v188.2h-37.2v-247
			c0-9.9,4.8-14.8,14.4-14.8h31.5c4.3,0,7.7,1,10.2,3s4.7,4.9,6.5,8.7l82.7,172.3c2.8,5.3,5.8,11.4,8.9,18.2
			c3.2,6.8,6.3,13.5,9.3,20.1h6.1c-0.5-6.8-0.9-13.6-1.1-20.3c-0.3-6.7-0.4-13.3-0.4-19.9v-182L925.5,160.8L925.5,160.8z"/>
		<path class="st2" d="M1065.9,232.9c21.8,0,39.1,3.2,52.2,9.5c13,6.3,22.4,16.6,28.1,30.9s8.5,33.2,8.5,56.7
			c0,23.8-2.8,42.8-8.5,57.1c-5.7,14.3-15.1,24.6-28.1,30.9s-30.4,9.5-52.2,9.5c-21.5,0-38.8-3.2-51.8-9.5
			c-13-6.3-22.5-16.6-28.3-30.9s-8.7-33.3-8.7-57.1c0-23.5,2.9-42.4,8.7-56.7c5.8-14.3,15.2-24.6,28.3-30.9
			C1027.1,236,1044.4,232.9,1065.9,232.9z M1065.9,262.5c-12.7,0-22.6,2-30,6.1c-7.3,4-12.5,10.9-15.6,20.7
			c-3,9.7-4.6,23.3-4.6,40.8s1.5,31.1,4.6,41c3,9.9,8.2,16.8,15.6,20.7c7.3,3.9,17.3,5.9,30,5.9c12.6,0,22.7-2,30.2-5.9
			s12.7-10.8,15.7-20.7c3-9.9,4.6-23.5,4.6-41s-1.5-31-4.6-40.8c-3-9.7-8.3-16.6-15.7-20.7C1088.6,264.5,1078.5,262.5,1065.9,262.5z
			"/>
		<path class="st2" d="M1231.3,237.4l4.6,35.7l3.4,5.3v144.2h-36.4V237.4H1231.3z M1322,232.9l-3.8,34.2h-11.8
			c-10.4,0-20.9,2-31.7,6.1c-10.8,4-23.8,9.9-39.3,17.5l-2.7-22.4c13.4-11.1,27-19.8,40.8-26s27.1-9.3,40-9.3h8.5V232.9z"/>
		<path class="st2" d="M1418.8,232.9c12.4,0,24.5,1.6,36.4,4.7c11.9,3.2,23.1,8.3,33.8,15.4l-2.3,21.2c-11.1-3.5-21.1-6.3-29.8-8.2
			c-8.7-1.9-18.2-2.8-28.3-2.8c-10.1,0-18.3,1.7-24.5,5.1s-10.8,9.9-13.7,19.5c-2.9,9.6-4.4,23.3-4.4,41c0,17.5,1.4,31.1,4.2,40.8
			c2.8,9.7,7.2,16.5,13.3,20.3c6.1,3.8,13.8,5.7,23.1,5.7c7.1,0,13.5-0.9,19.4-2.7c5.8-1.8,11.9-4.7,18.2-8.7
			c6.3-4,13.8-9.1,22.4-15.2l3,23.5c-9.6,9.6-20.8,17.8-33.6,24.5c-12.8,6.7-26.9,10.1-42.3,10.1c-23.3,0-40-8.3-50.1-24.9
			s-15.2-40.9-15.2-73c0-24.3,2.6-43.4,7.8-57.5c5.2-14,13-24,23.3-30C1390.1,235.8,1403.1,232.9,1418.8,232.9z M1518.9,157v265.6
			h-28.8l-4.2-32.6l-3.8-3V261l2.3-5.7c-1-7.1-1.6-14-1.9-20.9c-0.3-6.8-0.4-14-0.4-21.6V157H1518.9z"/>
		<path class="st2" d="M1603.9,158.1c7.3,0,11,3.7,11,11v21.6c0,7.3-3.7,11-11,11h-17.1c-7.3,0-11-3.7-11-11v-21.6
			c0-7.3,3.7-11,11-11H1603.9z M1613.4,237.4v185.2h-36V237.4H1613.4z"/>
		<path class="st2" d="M1752.3,232.9c5.8,0,12.2,0.3,19.2,0.8s14.2,1.4,21.6,2.7c7.5,1.3,14.4,3.2,20.7,5.7l-4.6,23.5
			c-8.9-0.8-17.9-1.3-27.1-1.5s-17.1-0.4-23.7-0.4c-14.2,0-25.4,1.9-33.6,5.7c-8.2,3.8-14.1,10.5-17.6,20.1s-5.3,23-5.3,40.2
			s1.8,30.7,5.3,40.6s9.4,16.7,17.6,20.5s19.4,5.7,33.6,5.7c3.8,0,8.7-0.1,14.8-0.4c6.1-0.2,12.6-0.6,19.7-1.1s13.9-1.3,20.5-2.3
			l3.4,24.3c-9.4,3.5-19.7,6.1-31.1,7.8c-11.4,1.6-22.6,2.5-33.8,2.5c-21.8,0-39.1-3.2-52.2-9.5c-13-6.3-22.5-16.6-28.3-30.7
			c-5.8-14.2-8.7-33.3-8.7-57.3c0-23.8,3-42.7,8.9-56.9c5.9-14.2,15.4-24.3,28.5-30.5C1713.2,236,1730.5,232.9,1752.3,232.9z"/>
		<path class="st2" d="M2041.1,156.2c11.4,0,21.1,0.3,29.2,0.8s15.6,1.3,22.4,2.5s13.9,2.7,21.2,4.7l-3.8,28.5
			c-7.6-0.8-14.7-1.3-21.2-1.7c-6.6-0.4-13.6-0.7-21.1-0.9s-16.4-0.4-26.8-0.4c-16.2,0-29,3.2-38.3,9.5c-9.4,6.3-16,16.9-19.9,31.7
			s-5.9,35.1-5.9,60.9c0,25.8,2,46.1,5.9,60.9s10.6,25.4,19.9,31.7c9.4,6.3,22.1,9.5,38.3,9.5c16.4,0,30.3-0.3,41.6-0.9
			s22.2-1.7,32.8-3.2l3.8,28.5c-11.1,3.3-22.6,5.6-34.3,7c-11.8,1.4-26.4,2.1-43.8,2.1c-25.3,0-45.6-4.4-60.9-13.1
			s-26.4-23-33.2-42.7c-6.8-19.7-10.2-46.3-10.2-79.7s3.4-60,10.2-79.7c6.8-19.7,17.9-34,33.2-42.7
			C1995.5,160.6,2015.8,156.2,2041.1,156.2z"/>
		<path class="st2" d="M2197,157l0.4,71.7c0,8.6-0.3,16.7-0.9,24.3c-0.6,7.6-1.7,14.3-3.2,20.1l3.8,5.3v144.2h-36.4V157H2197z
			 M2276.3,232.9c33.6,0,50.5,17,50.5,50.8v138.9h-37.2V294.3c0-11.6-1.8-19.7-5.5-24.1s-10.2-6.6-19.5-6.6
			c-10.6,0-21.4,2.5-32.3,7.4c-10.9,4.9-23.9,12.2-39.1,21.8l-1.9-24.3c14.2-11.1,28.4-19.9,42.7-26.2
			C2248.3,236,2262.4,232.9,2276.3,232.9z"/>
		<path class="st2" d="M2520.3,308.4l-0.4,25.8l-87.3,0.4c-8.6,0.3-14.6,2.5-18,6.6s-5.1,9.9-5.1,17.3v11.4c0,9.1,2.2,15.7,6.6,19.9
			c4.4,4.2,11.4,6.3,21.1,6.3c7.1,0,15-1.3,23.7-4s17.5-6.7,26.4-12.1s16.8-12.3,23.9-20.7v23.9c-2.5,3.5-6.3,7.8-11.4,12.7
			c-5.1,4.9-11.2,9.7-18.4,14.2c-7.2,4.6-15.2,8.3-23.9,11.4c-8.7,3-18.3,4.6-28.6,4.6c-11.1,0-20.9-2-29.4-5.9s-15.1-9.7-19.9-17.5
			c-4.8-7.7-7.2-17.1-7.2-28.3v-20.1c0-14.4,4.6-25.7,13.9-33.8c9.2-8.1,22.1-12.1,38.5-12.1L2520.3,308.4L2520.3,308.4z
			 M2471.7,232.9c14.2,0,26.1,1.8,35.9,5.5c9.7,3.7,17.1,9.9,22,18.8s7.4,21,7.4,36.4v129h-28.8l-5.7-40.2l-2.3-4.6v-84.2
			c-0.3-10.9-2.8-18.7-7.8-23.5c-4.9-4.8-14.5-7.2-28.6-7.2c-9.6,0-21.7,0.5-36.2,1.5s-28.9,2-43.1,3l-3.4-26.2
			c8.6-1.5,18.1-2.9,28.6-4.2s21.2-2.3,32.1-3C2452.6,233.3,2462.6,232.9,2471.7,232.9z"/>
		<path class="st2" d="M2620.9,237.4l4.6,35.7l3.4,5.3v144.2h-36.4V237.4H2620.9z M2711.6,232.9l-3.8,34.2H2696
			c-10.4,0-20.9,2-31.7,6.1c-10.8,4-23.8,9.9-39.3,17.5l-2.7-22.4c13.4-11.1,27-19.8,40.8-26s27.1-9.3,40-9.3h8.5V232.9z"/>
		<path class="st2" d="M2768.5,338.7l20.1,2.7c-4,3.5-6.8,8-8.3,13.3s-1.1,10.1,1.1,14.4c2.3,4.3,7.3,7.1,15.2,8.3l69.1,10.6
			c17.7,2.3,30.1,7.7,37.2,16.1c7.1,8.5,10.6,20.5,10.6,36.2c0,14.9-2.8,26.6-8.5,34.9s-15.1,14.3-28.3,17.8s-30.9,5.3-53.1,5.3
			c-17.5,0-32-0.9-43.6-2.8s-20.9-5.1-27.9-9.5s-12-10.2-15-17.3c-3-7.1-4.6-15.8-4.6-26.2c0-8.1,1.2-14.9,3.6-20.5
			c2.4-5.6,6.4-10.5,12-14.8s12.8-8.5,21.6-12.5l23.9-11.8l15.9,5.7l-18.2,13.3c-5.3,3.8-9.7,7.5-13.1,11.2c-3.4,3.7-6,7.5-7.8,11.4
			s-2.7,8.7-2.7,14.2c0,8.1,1.6,14.3,4.7,18.6c3.2,4.3,8.8,7.2,16.9,8.7c8.1,1.5,19.4,2.3,33.8,2.3c14.4,0,25.5-0.8,33.4-2.5
			c7.8-1.6,13.3-4.6,16.5-8.7c3.2-4.2,4.7-10.2,4.7-18c0-6.1-0.8-10.7-2.5-13.9c-1.6-3.2-4.7-5.6-9.3-7.2s-11.1-3.1-19.7-4.4
			l-64.9-8.3c-8.3-1-14.9-3.6-19.7-7.8c-4.8-4.2-8.2-9.1-10.1-14.8s-2.4-11.4-1.5-17.1s2.9-11.1,6.1-16.1
			C2759.3,344.7,2763.4,341,2768.5,338.7z M2821.6,232.9c20,0,35.9,2,47.6,5.9c11.8,3.9,20.2,10.2,25.2,19c5.1,8.7,7.6,20.1,7.6,34
			c0,13.4-2.5,24.5-7.6,33.2s-13.5,15.2-25.4,19.4c-11.9,4.2-27.8,6.3-47.8,6.3c-20.2,0-36.2-2.1-48-6.3
			c-11.8-4.2-20.2-10.6-25.2-19.2c-5.1-8.6-7.6-19.6-7.6-33c0-14.2,2.5-25.6,7.6-34.3c5.1-8.7,13.5-15,25.4-19
			C2785.3,234.8,2801.4,232.9,2821.6,232.9z M2821.2,259.1c-17.7,0-30,2.5-36.8,7.4s-10.2,13.3-10.2,25.2c0,11.6,3.4,20,10.2,25
			c6.8,5.1,19.1,7.6,36.8,7.6s29.9-2.5,36.6-7.6c6.7-5.1,10.1-13.4,10.1-25c0-11.9-3.4-20.3-10.1-25.2
			C2851.1,261.5,2838.9,259.1,2821.2,259.1z M2923.7,237.4l-1.9,19l-47.8,4.2l-13.3-23.1h63V237.4z"/>
		<path class="st2" d="M3037.9,232.9c28.6,0,49.3,5.1,62,15.4c12.8,10.2,19.2,25.4,19.2,45.3c0.2,16.7-3.4,29.6-10.8,38.7
			c-7.5,9.1-19.5,13.7-36.2,13.7h-107v-26.2h97.5c8.3,0,13.8-2.7,16.3-8s3.8-11.4,3.8-18.2c-0.3-11.4-3.6-19.4-10.1-24.1
			s-17.5-7-33.2-7c-12.9-0.2-23,1.5-30.4,5.3c-7.3,3.8-12.5,10.4-15.4,19.7c-2.9,9.4-4.4,22.5-4.4,39.5c0,19,1.8,33.5,5.5,43.4
			c3.7,10,9.6,16.9,17.8,20.7c8.2,3.8,19.2,5.7,32.8,5.7c9.6,0,20.4-0.4,32.4-1.3s23-2,32.8-3.2l3.8,23.9c-6.1,2.5-13.4,4.6-22,6.3
			c-8.6,1.6-17.5,2.8-26.6,3.6c-9.1,0.8-17.5,1.1-25,1.1c-21.8,0-39.2-3.3-52.4-9.9s-22.8-17-28.8-31.3c-6.1-14.3-9.1-33.1-9.1-56.3
			c0-24.3,3-43.5,9.1-57.7s15.6-24.2,28.5-30.2C3001.1,235.8,3017.6,232.9,3037.9,232.9z"/>
	</g>
</g>
<g>
	<path class="st2" d="M93.2,488.7H20c-5.3,0-8.8-5.6-6.5-10.3l175.9-360.9c1.2-2.5,3.7-4,6.5-4h80.5c2.8,0,5.3,1.6,6.5,4l61.4,126
		c0.9,1.9,1,4.2,0.1,6.2l-35.7,76.8c-2.6,5.5-10.3,5.6-13,0.1l-58.3-119.5L99.6,484.7C98.4,487.2,95.9,488.7,93.2,488.7z"/>
</g>
<g>
	<path class="st3" d="M443.3,113.5h73.2c5.3,0,8.8,5.6,6.5,10.3L347.1,484.7c-1.2,2.5-3.7,4-6.5,4h-80.5c-2.8,0-5.3-1.6-6.5-4
		l-61.4-126c-0.9-1.9-1-4.2-0.1-6.2l35.7-76.8c2.6-5.5,10.3-5.6,13-0.1l58.3,119.6l137.8-277.7C438.1,115,440.6,113.5,443.3,113.5z"
		/>
</g>
</svg>
